<?xml version="1.0" encoding="utf-8"?>
<!-- Generator: Adobe Illustrator 14.0.0, SVG Export Plug-In . SVG Version: 6.00 Build 43363)  -->
<!DOCTYPE svg PUBLIC "-//W3C//DTD SVG 1.1//EN" "http://www.w3.org/Graphics/SVG/1.1/DTD/svg11.dtd">
<svg version="1.1" id="Layer_1" xmlns="http://www.w3.org/2000/svg" xmlns:xlink="http://www.w3.org/1999/xlink" x="0px" y="0px"
	 width="612px" height="792px" viewBox="0 0 612 792" enable-background="new 0 0 612 792" xml:space="preserve">
<g>
	<polygon fill-rule="evenodd" clip-rule="evenodd" fill="#FFFFFF" points="209,300 401.756,300 401.756,492.756 209,492.756 
		209,300 	"/>
	<path fill-rule="evenodd" clip-rule="evenodd" fill="#0066B3" d="M322.51,415.928c-19.064,19.582-42.473,27.717-52.281,18.166
		c-4.613-4.492-5.393-12.096-2.946-20.926h-15.437c-8.129,14.564-10.223,27.236-4.24,34.172c11.277,13.07,46.864,0.85,79.486-27.297
		c4.748-4.096,9.159-8.303,13.216-12.543h-10.483C327.621,410.355,325.184,413.182,322.51,415.928L322.51,415.928z"/>
	<path fill-rule="evenodd" clip-rule="evenodd" fill="#0066B3" d="M365.741,345.416c-11.276-13.07-46.863-0.85-79.487,27.295
		c-2.852,2.46-5.577,4.961-8.186,7.484h10.066c18.848-18.744,41.519-26.375,51.133-17.016c5.122,4.986,5.515,13.812,2.015,23.892
		h15.635C368.731,369.437,372.731,353.517,365.741,345.416L365.741,345.416z"/>
	<path fill-rule="evenodd" clip-rule="evenodd" d="M259.265,381.644c0,0-19.048,0.11-26.306,0
		c-12.719-0.193-17.156,18.612-5.59,18.612c11.54,0,14.958,0,17.006,0c2.048,0,2.234,2.232,0,2.232
		c-2.233,0-25.87-0.371-25.87-0.371l-2.606,8.746c0,0,20.287,0,28.849,0c12.111,0,15.094-18.797,2.143-18.797
		c-10.237,0-13.309,0-16.101,0c-2.792,0-2.047-2.233,0-2.233c2.048,0,26.243,0,26.243,0L259.265,381.644L259.265,381.644z"/>
	<path fill-rule="evenodd" clip-rule="evenodd" d="M261.944,381.637c0,0,17.103-0.354,26.187-0.354
		c9.083,0,12.796,19.194-3.002,19.194s-19.51,0-19.51,0l-2.685,10.664h-9.084l5.688-19.273c0,0,23.539,0,25.75,0
		c2.211,0,1.816-1.738-0.158-1.738c-1.975,0-25.276-0.158-25.276-0.158L261.944,381.637L261.944,381.637z"/>
	<polygon fill-rule="evenodd" clip-rule="evenodd" points="279.915,411.297 308.588,381.204 314.67,381.125 321.385,411.299 
		311.826,411.299 308.69,393.215 291.368,411.297 279.915,411.297 	"/>
	<path fill-rule="evenodd" clip-rule="evenodd" d="M360.879,381.44c0,0-3.714-0.158-19.115-0.158
		c-26.225,0-26.698,30.094-11.771,30.094c16.271,0,22.275-0.078,22.275-0.078l2.764-8.926c0,0-13.111-0.158-21.247-0.158
		s-5.45-11.77,4.345-11.77c7.819,0,20.3-0.237,20.3-0.237L360.879,381.44L360.879,381.44z"/>
	<polygon fill-rule="evenodd" clip-rule="evenodd" points="392.281,390.14 360.191,390.119 362.768,381.352 394.857,381.373 
		392.281,390.14 	"/>
	<polygon fill-rule="evenodd" clip-rule="evenodd" points="389.2,400.725 357.111,400.703 359.687,391.937 391.777,391.958 
		389.2,400.725 	"/>
	<polygon fill-rule="evenodd" clip-rule="evenodd" points="386.198,411.309 354.109,411.287 356.685,402.521 388.775,402.543 
		386.198,411.309 	"/>
</g>
</svg>
